<svg xmlns="http://www.w3.org/2000/svg" viewBox="0 0 506.58 84.71">
  <title>Asset 1</title>
  <g id="combination-mark" data-name="Layer 2">
    <g id="b422f8ae-b77e-4bda-b784-9d03edc2c71b" data-name="Infinity">
      <path class="a6f204e9-f964-41d6-af4d-7507fbdc5d36" d="M192.1,57.31q.93.77,2.37,2a30.67,30.67,0,0,0,3.3,2.54,28.26,28.26,0,0,0,5.52,2.9,16,16,0,0,0,5.73,1,15.15,15.15,0,0,0,4.66-.62,7.92,7.92,0,0,0,3-1.67,5.85,5.85,0,0,0,1.55-2.4,8.89,8.89,0,0,0,.47-2.89,4.24,4.24,0,0,0-1.29-3,13.3,13.3,0,0,0-3.13-2.38,26.68,26.68,0,0,0-3.88-1.77c-1.35-.49-2.51-.9-3.49-1.23a79.07,79.07,0,0,1-11.46-4.93A35.18,35.18,0,0,1,187.24,39a22.12,22.12,0,0,1-4.91-7.14,22.3,22.3,0,0,1-1.64-8.7A20.47,20.47,0,0,1,182.74,14a20.18,20.18,0,0,1,5.84-7.09,27.67,27.67,0,0,1,9.14-4.55A41.48,41.48,0,0,1,209.67.71a39.67,39.67,0,0,1,9.53,1.12,36.27,36.27,0,0,1,9,3.57c1.24.73,2.41,1.49,3.52,2.27a36.59,36.59,0,0,1,2.92,2.26,14.08,14.08,0,0,1,2,2.08,3,3,0,0,1,.73,1.69A2.6,2.6,0,0,1,237,15a8.21,8.21,0,0,1-1.07,1.36l-8.35,8.9a2.66,2.66,0,0,1-1.85.93,2.37,2.37,0,0,1-1.39-.44,16.57,16.57,0,0,1-1.4-1.09l-.49-.44c-.73-.62-1.54-1.25-2.43-1.91a22.15,22.15,0,0,0-2.86-1.77,18.56,18.56,0,0,0-3.22-1.31,11.57,11.57,0,0,0-3.44-.52,18.09,18.09,0,0,0-3.38.3,9.36,9.36,0,0,0-2.79,1,5.28,5.28,0,0,0-1.91,1.71,4.62,4.62,0,0,0-.71,2.6,4.54,4.54,0,0,0,.77,2.64A7.56,7.56,0,0,0,204.76,29a20.72,20.72,0,0,0,3.79,1.8q2.26.84,5.27,1.83,5.79,1.9,10.67,4a35.72,35.72,0,0,1,8.43,5,20.45,20.45,0,0,1,5.54,6.85,21.36,21.36,0,0,1,2,9.66A23.81,23.81,0,0,1,238,69a25,25,0,0,1-6.74,8.33,31.72,31.72,0,0,1-10.07,5.32,39.89,39.89,0,0,1-12.45,1.88,35.39,35.39,0,0,1-12.33-2.24,47.37,47.37,0,0,1-11.3-6,29,29,0,0,1-3.68-3.12c-1-1-1.8-1.84-2.38-2.47l-.16-.16a.45.45,0,0,0-.11-.14.26.26,0,0,1-.11-.08.34.34,0,0,0-.11-.14.26.26,0,0,1-.11-.08,3.78,3.78,0,0,1-1.25-2.19,3.09,3.09,0,0,1,1.25-2.08l9.44-9a3.56,3.56,0,0,1,1.86-.82,2,2,0,0,1,1,.33A9.35,9.35,0,0,1,192.1,57.31Z"/>
      <path class="a6f204e9-f964-41d6-af4d-7507fbdc5d36" d="M354.58,43.06A41.47,41.47,0,0,1,356.05,32a42.19,42.19,0,0,1,10.73-18.48A40.69,40.69,0,0,1,375.22,7a43,43,0,0,1,10-4.2,41.55,41.55,0,0,1,22.2,0,42.81,42.81,0,0,1,10,4.2,41.48,41.48,0,0,1,15,15,43.28,43.28,0,0,1,4.2,10,41.59,41.59,0,0,1,0,22.21,42.11,42.11,0,0,1-4.2,9.93,40.82,40.82,0,0,1-6.53,8.41A42.8,42.8,0,0,1,417.39,79a41.82,41.82,0,0,1-42.17,0,42.13,42.13,0,0,1-15-14.93,40.93,40.93,0,0,1-4.21-9.93A41.54,41.54,0,0,1,354.58,43.06ZM375.7,43a23.11,23.11,0,0,0,1.53,8.46,20.73,20.73,0,0,0,4.28,6.85A19.93,19.93,0,0,0,388,62.9a20.25,20.25,0,0,0,8.28,1.67,20.47,20.47,0,0,0,8.32-1.67,20.06,20.06,0,0,0,6.54-4.58,21.06,21.06,0,0,0,4.28-6.85,24.22,24.22,0,0,0,0-16.89,21.34,21.34,0,0,0-4.28-6.91,20,20,0,0,0-14.86-6.33,19.82,19.82,0,0,0-14.79,6.33,21,21,0,0,0-4.28,6.91A23.11,23.11,0,0,0,375.7,43Z"/>
      <path class="a6f204e9-f964-41d6-af4d-7507fbdc5d36" d="M458.22,57.31c.62.51,1.41,1.19,2.38,2a29.71,29.71,0,0,0,3.3,2.54,28.19,28.19,0,0,0,5.51,2.9,16,16,0,0,0,5.73,1,15.18,15.18,0,0,0,4.67-.62,7.92,7.92,0,0,0,3-1.67,6,6,0,0,0,1.55-2.4,8.89,8.89,0,0,0,.47-2.89,4.24,4.24,0,0,0-1.29-3,13.16,13.16,0,0,0-3.14-2.38,26.56,26.56,0,0,0-3.87-1.77c-1.35-.49-2.51-.9-3.49-1.23a79.7,79.7,0,0,1-11.47-4.93A35.32,35.32,0,0,1,453.37,39a22.16,22.16,0,0,1-4.92-7.14,22.3,22.3,0,0,1-1.63-8.7A19.95,19.95,0,0,1,454.7,6.87a27.82,27.82,0,0,1,9.15-4.55A41.48,41.48,0,0,1,475.8.71a39.59,39.59,0,0,1,9.52,1.12,36.33,36.33,0,0,1,9,3.57c1.24.73,2.41,1.49,3.52,2.27s2.08,1.54,2.92,2.26a13.47,13.47,0,0,1,2,2.08,3,3,0,0,1,.74,1.69,2.6,2.6,0,0,1-.35,1.31,8.79,8.79,0,0,1-1.07,1.36l-8.35,8.9a2.68,2.68,0,0,1-1.85.93,2.42,2.42,0,0,1-1.4-.44,16.57,16.57,0,0,1-1.39-1.09l-.49-.44c-.73-.62-1.54-1.25-2.43-1.91a22.86,22.86,0,0,0-2.86-1.77,18.89,18.89,0,0,0-3.22-1.31,11.57,11.57,0,0,0-3.44-.52,18.28,18.28,0,0,0-3.39.3,9.39,9.39,0,0,0-2.78,1,5.28,5.28,0,0,0-1.91,1.71,4.62,4.62,0,0,0-.71,2.6,4.53,4.53,0,0,0,.76,2.64,7.61,7.61,0,0,0,2.3,2.08,20.72,20.72,0,0,0,3.79,1.8q2.26.84,5.27,1.83,5.78,1.9,10.67,4a36.13,36.13,0,0,1,8.43,5,20.57,20.57,0,0,1,5.54,6.85,21.36,21.36,0,0,1,2,9.66A23.94,23.94,0,0,1,504.13,69a25,25,0,0,1-6.74,8.33,31.72,31.72,0,0,1-10.07,5.32,39.89,39.89,0,0,1-12.45,1.88,35.39,35.39,0,0,1-12.33-2.24,47.37,47.37,0,0,1-11.3-6,29.16,29.16,0,0,1-3.69-3.12c-1-1-1.79-1.84-2.37-2.47l-.16-.16a.45.45,0,0,0-.11-.14.21.21,0,0,1-.11-.08.45.45,0,0,0-.11-.14.26.26,0,0,1-.11-.08,3.81,3.81,0,0,1-1.26-2.19,3.11,3.11,0,0,1,1.26-2.08l9.44-9a3.53,3.53,0,0,1,1.86-.82,2,2,0,0,1,1,.33A8.8,8.8,0,0,1,458.22,57.31Z"/>
      <path class="a6f204e9-f964-41d6-af4d-7507fbdc5d36" d="M316.88,2.46a28,28,0,0,0-17.83,6.38,28.09,28.09,0,0,0-45.91,21.7v51a2,2,0,0,0,2,2h16.5a2,2,0,0,0,2-2v-51a7.58,7.58,0,1,1,15.16,0v51a2,2,0,0,0,2,2h16.5a2,2,0,0,0,2-2v-51a7.58,7.58,0,1,1,15.16,0v51a2,2,0,0,0,2,2H343a2,2,0,0,0,2-2v-51A28.08,28.08,0,0,0,316.88,2.46Z"/>
      <path class="a6f204e9-f964-41d6-af4d-7507fbdc5d36" d="M171.83,31.18a42.32,42.32,0,0,0-4.05-10A41.09,41.09,0,0,0,161,12.27a40.59,40.59,0,0,0-8.92-6.79,42.75,42.75,0,0,0-10-4.09A41,41,0,0,0,131.42,0a41.54,41.54,0,0,0-10.6,1.37,43.21,43.21,0,0,0-10,4.1,56.3,56.3,0,0,0-7.39,5.46c-.83.73-2.15,2-2.92,2.73l-42,42c-.78.78-2.11,2-3,2.69A24.92,24.92,0,0,1,50,61.74a20.19,20.19,0,0,1-7.91,1.34,21,21,0,0,1-7.9-1.86,23.08,23.08,0,0,1-7-4.88,23.33,23.33,0,0,1-4.9-7.06,21,21,0,0,1-1.82-7.87,20.08,20.08,0,0,1,1.39-7.87,20.42,20.42,0,0,1,4.7-7,19.94,19.94,0,0,1,14.88-6,21,21,0,0,1,7.87,1.82,28.63,28.63,0,0,1,5.49,3.58l1.55,1.31,1.44,1.43.07.07a2,2,0,0,0,2.82,0L72.74,16.54a2,2,0,0,0,0-2.83l-.11-.11c-.78-.77-2.09-2-2.91-2.73a56.3,56.3,0,0,0-7.4-5.49,40.46,40.46,0,0,0-10-4,42.32,42.32,0,0,0-21.13,0,41.36,41.36,0,0,0-18.92,10.9A41.56,41.56,0,0,0,1.37,31.17,42.57,42.57,0,0,0,0,41.77,40.76,40.76,0,0,0,1.33,52.33a42.25,42.25,0,0,0,4.05,10A41.72,41.72,0,0,0,21.09,78a43.44,43.44,0,0,0,10,4.09,41.33,41.33,0,0,0,21.22,0,42.91,42.91,0,0,0,10-4.09,56.3,56.3,0,0,0,7.39-5.46c.83-.73,2.14-2,2.92-2.74l42-42c.78-.78,2.11-2,3-2.69a24.65,24.65,0,0,1,5.53-3.41,20,20,0,0,1,7.9-1.35A21.21,21.21,0,0,1,139,22.28a24.07,24.07,0,0,1,11.94,11.95,20.76,20.76,0,0,1,1.82,7.86A19.86,19.86,0,0,1,151.35,50a20.55,20.55,0,0,1-4.7,7.06,20.27,20.27,0,0,1-7,4.68,19.84,19.84,0,0,1-7.84,1.36,20.76,20.76,0,0,1-7.87-1.82,28.13,28.13,0,0,1-5.49-3.58c-.85-.7-1.54-1.29-1.55-1.3l-1.44-1.43L108,47.54a2,2,0,0,0-2.83,0L93.1,59.65a2,2,0,0,0,0,2.83l7.42,7.42c.78.78,2.1,2,2.92,2.74a57.66,57.66,0,0,0,7.39,5.49,41.17,41.17,0,0,0,10,4.05,42.21,42.21,0,0,0,21.14,0,41.22,41.22,0,0,0,18.92-10.89,42.1,42.1,0,0,0,6.8-8.88,41.17,41.17,0,0,0,4.09-10,43.11,43.11,0,0,0,1.38-10.6A41.2,41.2,0,0,0,171.83,31.18Z"/>
    </g>
  </g>
</svg>
