<svg aria-hidden="true" style="position: absolute; width: 0; height: 0; overflow: hidden;" version="1.1" xmlns="http://www.w3.org/2000/svg" xmlns:xlink="http://www.w3.org/1999/xlink">
<defs>
<symbol id="co-arrow-down" viewBox="0 0 24 24">
<title>arrow-down</title>
<path d="M19.7 11.3c-0.4-0.4-1-0.4-1.4 0l-5.3 5.3v-11.6c0-0.6-0.4-1-1-1s-1 0.4-1 1v11.6l-5.3-5.3c-0.4-0.4-1-0.4-1.4 0s-0.4 1 0 1.4l7 7c0.1 0.1 0.2 0.2 0.3 0.2 0.1 0.1 0.3 0.1 0.4 0.1s0.3 0 0.4-0.1c0.1-0.1 0.2-0.1 0.3-0.2l7-7c0.4-0.4 0.4-1 0-1.4z"></path>
</symbol>
<symbol id="co-arrow-up" viewBox="0 0 24 24">
<title>arrow-up</title>
<path d="M19.7 11.3l-7-7c-0.1-0.1-0.2-0.2-0.3-0.2-0.2-0.1-0.5-0.1-0.8 0-0.1 0.1-0.2 0.1-0.3 0.2l-7 7c-0.4 0.4-0.4 1 0 1.4s1 0.4 1.4 0l5.3-5.3v11.6c0 0.6 0.4 1 1 1s1-0.4 1-1v-11.6l5.3 5.3c0.2 0.2 0.5 0.3 0.7 0.3s0.5-0.1 0.7-0.3c0.4-0.4 0.4-1 0-1.4z"></path>
</symbol>
<symbol id="co-file" viewBox="0 0 24 24">
<title>file</title>
<path d="M20.9 8.6c-0.1-0.1-0.1-0.2-0.2-0.3l-7-7c-0.1-0.1-0.2-0.2-0.3-0.2-0.1-0.1-0.3-0.1-0.4-0.1h-7c-1.7 0-3 1.3-3 3v16c0 1.7 1.3 3 3 3h12c1.7 0 3-1.3 3-3v-11c0-0.1 0-0.3-0.1-0.4zM14 4.4l3.6 3.6h-3.6v-3.6zM18 21h-12c-0.6 0-1-0.4-1-1v-16c0-0.6 0.4-1 1-1h6v6c0 0.6 0.4 1 1 1h6v10c0 0.6-0.4 1-1 1z"></path>
</symbol>
<symbol id="co-image" viewBox="0 0 24 24">
<title>image</title>
<path d="M19 2h-14c-1.7 0-3 1.3-3 3v14c0 1.7 1.3 3 3 3h14c1.7 0 3-1.3 3-3v-14c0-1.7-1.3-3-3-3zM4 5c0-0.6 0.4-1 1-1h14c0.6 0 1 0.4 1 1v7.6l-3.3-3.3c-0.4-0.4-1-0.4-1.4 0l-10.6 10.6c-0.4-0.1-0.7-0.5-0.7-0.9v-14zM19 20h-11.6l8.6-8.6 4 4v3.6c0 0.6-0.4 1-1 1z"></path>
<path d="M8.5 11c1.4 0 2.5-1.1 2.5-2.5s-1.1-2.5-2.5-2.5-2.5 1.1-2.5 2.5 1.1 2.5 2.5 2.5zM8.5 8c0.3 0 0.5 0.2 0.5 0.5s-0.2 0.5-0.5 0.5-0.5-0.2-0.5-0.5 0.2-0.5 0.5-0.5z"></path>
</symbol>
</defs>
</svg>
