<?xml version="1.0" encoding="UTF-8" standalone="no"?>
<svg
   viewBox="0 0 480.00001 149.99998"
   version="1.1"
   id="svg5"
   sodipodi:docname="cosmos-combination-mark-moon.svg"
   width="480"
   height="150"
   inkscape:version="1.3.2 (091e20e, 2023-11-25)"
   xml:space="preserve"
   inkscape:export-filename="cosmos-combination-mark-moon-test.jpg"
   inkscape:export-xdpi="500"
   inkscape:export-ydpi="500"
   xmlns:inkscape="http://www.inkscape.org/namespaces/inkscape"
   xmlns:sodipodi="http://sodipodi.sourceforge.net/DTD/sodipodi-0.dtd"
   xmlns:xlink="http://www.w3.org/1999/xlink"
   xmlns="http://www.w3.org/2000/svg"
   xmlns:svg="http://www.w3.org/2000/svg"
   xmlns:rdf="http://www.w3.org/1999/02/22-rdf-syntax-ns#"
   xmlns:cc="http://creativecommons.org/ns#"
   xmlns:dc="http://purl.org/dc/elements/1.1/"><defs
     id="defs5"><mask
       maskUnits="userSpaceOnUse"
       id="mask9"><g
         id="g10"
         transform="matrix(1.1297765,0,0,1.1297765,-16.893786,-12.040647)"
         style="display:inline"><rect
           style="display:inline;fill:#ffffff"
           id="rect10"
           width="495.10703"
           height="342.26962"
           x="-12.915836"
           y="-27.266754" /><circle
           style="display:inline;fill:#000000;stroke-width:1.40984"
           id="circle10"
           cx="245.72194"
           cy="-310.09485"
           r="235.58487"
           transform="scale(1,-1)" /></g></mask></defs><sodipodi:namedview
     id="namedview5"
     pagecolor="#ffffff"
     bordercolor="#000000"
     borderopacity="0.25"
     inkscape:showpageshadow="2"
     inkscape:pageopacity="0.0"
     inkscape:pagecheckerboard="0"
     inkscape:deskcolor="#d1d1d1"
     inkscape:zoom="1.5477173"
     inkscape:cx="218.38614"
     inkscape:cy="110.48529"
     inkscape:window-width="1496"
     inkscape:window-height="827"
     inkscape:window-x="0"
     inkscape:window-y="34"
     inkscape:window-maximized="0"
     inkscape:current-layer="svg5"
     showgrid="false" /><title
     id="title1">Asset 1</title><rect
     width="99.999992%"
     height="100.00002%"
     fill="#ffffff"
     id="rect1"
     x="1.5258789e-05"
     y="-7.6293945e-06"
     style="stroke-width:1.00002;fill:#000000"
     inkscape:label="background" /><metadata
     id="metadata5"><rdf:RDF><cc:Work
         rdf:about=""><dc:title>Asset 1</dc:title></cc:Work></rdf:RDF></metadata><image
     width="233.30779"
     height="491.79544"
     preserveAspectRatio="xMidYMid"
     style="display:inline;image-rendering:optimizeQuality"
     xlink:href="moon-small.jpg"
     id="image1"
     x="-207.79088"
     y="-6.8983512"
     transform="rotate(-90)"
     inkscape:label="image1" /><g
     id="combination-mark"
     data-name="Layer 2"
     transform="matrix(0.88742022,0,0,0.88742022,15.022695,9.9068288)"
     inkscape:label="combination-mark"
     style="fill:#ffffff"
     mask="url(#mask9)"><g
       id="b422f8ae-b77e-4bda-b784-9d03edc2c71b"
       data-name="Infinity"
       transform="translate(0,7.6689543)"
       style="fill:#ffffff"><path
         class="a6f204e9-f964-41d6-af4d-7507fbdc5d36"
         d="m 192.1,57.31 q 0.93,0.77 2.37,2 a 30.67,30.67 0 0 0 3.3,2.54 28.26,28.26 0 0 0 5.52,2.9 16,16 0 0 0 5.73,1 15.15,15.15 0 0 0 4.66,-0.62 7.92,7.92 0 0 0 3,-1.67 5.85,5.85 0 0 0 1.55,-2.4 8.89,8.89 0 0 0 0.47,-2.89 4.24,4.24 0 0 0 -1.29,-3 13.3,13.3 0 0 0 -3.13,-2.38 26.68,26.68 0 0 0 -3.88,-1.77 c -1.35,-0.49 -2.51,-0.9 -3.49,-1.23 a 79.07,79.07 0 0 1 -11.46,-4.93 35.18,35.18 0 0 1 -8.21,-5.86 22.12,22.12 0 0 1 -4.91,-7.14 22.3,22.3 0 0 1 -1.64,-8.7 20.47,20.47 0 0 1 2.05,-9.16 20.18,20.18 0 0 1 5.84,-7.09 27.67,27.67 0 0 1 9.14,-4.55 41.48,41.48 0 0 1 11.95,-1.65 39.67,39.67 0 0 1 9.53,1.12 36.27,36.27 0 0 1 9,3.57 c 1.24,0.73 2.41,1.49 3.52,2.27 a 36.59,36.59 0 0 1 2.92,2.26 14.08,14.08 0 0 1 2,2.08 3,3 0 0 1 0.73,1.69 2.6,2.6 0 0 1 -0.37,1.3 8.21,8.21 0 0 1 -1.07,1.36 l -8.35,8.9 a 2.66,2.66 0 0 1 -1.85,0.93 2.37,2.37 0 0 1 -1.39,-0.44 16.57,16.57 0 0 1 -1.4,-1.09 l -0.49,-0.44 c -0.73,-0.62 -1.54,-1.25 -2.43,-1.91 a 22.15,22.15 0 0 0 -2.86,-1.77 18.56,18.56 0 0 0 -3.22,-1.31 11.57,11.57 0 0 0 -3.44,-0.52 18.09,18.09 0 0 0 -3.38,0.3 9.36,9.36 0 0 0 -2.79,1 5.28,5.28 0 0 0 -1.91,1.71 4.62,4.62 0 0 0 -0.71,2.6 4.54,4.54 0 0 0 0.77,2.64 7.56,7.56 0 0 0 2.28,2.04 20.72,20.72 0 0 0 3.79,1.8 q 2.26,0.84 5.27,1.83 5.79,1.9 10.67,4 a 35.72,35.72 0 0 1 8.43,5 20.45,20.45 0 0 1 5.54,6.85 21.36,21.36 0 0 1 2,9.66 A 23.81,23.81 0 0 1 238,69 a 25,25 0 0 1 -6.74,8.33 31.72,31.72 0 0 1 -10.07,5.32 39.89,39.89 0 0 1 -12.45,1.88 35.39,35.39 0 0 1 -12.33,-2.24 47.37,47.37 0 0 1 -11.3,-6 29,29 0 0 1 -3.68,-3.12 c -1,-1 -1.8,-1.84 -2.38,-2.47 l -0.16,-0.16 a 0.45,0.45 0 0 0 -0.11,-0.14 0.26,0.26 0 0 1 -0.11,-0.08 0.34,0.34 0 0 0 -0.11,-0.14 0.26,0.26 0 0 1 -0.11,-0.08 3.78,3.78 0 0 1 -1.25,-2.19 3.09,3.09 0 0 1 1.25,-2.08 l 9.44,-9 a 3.56,3.56 0 0 1 1.86,-0.82 2,2 0 0 1 1,0.33 9.35,9.35 0 0 1 1.35,0.97 z"
         id="path1"
         style="fill:#ffffff" /><path
         class="a6f204e9-f964-41d6-af4d-7507fbdc5d36"
         d="M 354.58,43.06 A 41.47,41.47 0 0 1 356.05,32 42.19,42.19 0 0 1 366.78,13.52 40.69,40.69 0 0 1 375.22,7 a 43,43 0 0 1 10,-4.2 41.55,41.55 0 0 1 22.2,0 42.81,42.81 0 0 1 10,4.2 41.48,41.48 0 0 1 15,15 43.28,43.28 0 0 1 4.2,10 41.59,41.59 0 0 1 0,22.21 42.11,42.11 0 0 1 -4.2,9.93 40.82,40.82 0 0 1 -6.53,8.41 42.8,42.8 0 0 1 -8.5,6.45 41.82,41.82 0 0 1 -42.17,0 42.13,42.13 0 0 1 -15,-14.93 40.93,40.93 0 0 1 -4.21,-9.93 41.54,41.54 0 0 1 -1.43,-11.08 z M 375.7,43 a 23.11,23.11 0 0 0 1.53,8.46 20.73,20.73 0 0 0 4.28,6.85 19.93,19.93 0 0 0 6.49,4.59 20.25,20.25 0 0 0 8.28,1.67 20.47,20.47 0 0 0 8.32,-1.67 20.06,20.06 0 0 0 6.54,-4.58 21.06,21.06 0 0 0 4.28,-6.85 24.22,24.22 0 0 0 0,-16.89 21.34,21.34 0 0 0 -4.28,-6.91 20,20 0 0 0 -14.86,-6.33 19.82,19.82 0 0 0 -14.79,6.33 21,21 0 0 0 -4.28,6.91 23.11,23.11 0 0 0 -1.51,8.42 z"
         id="path2"
         style="fill:#ffffff" /><path
         class="a6f204e9-f964-41d6-af4d-7507fbdc5d36"
         d="m 458.22,57.31 c 0.62,0.51 1.41,1.19 2.38,2 a 29.71,29.71 0 0 0 3.3,2.54 28.19,28.19 0 0 0 5.51,2.9 16,16 0 0 0 5.73,1 15.18,15.18 0 0 0 4.67,-0.62 7.92,7.92 0 0 0 3,-1.67 6,6 0 0 0 1.55,-2.4 8.89,8.89 0 0 0 0.47,-2.89 4.24,4.24 0 0 0 -1.29,-3 13.16,13.16 0 0 0 -3.14,-2.38 26.56,26.56 0 0 0 -3.87,-1.77 c -1.35,-0.49 -2.51,-0.9 -3.49,-1.23 a 79.7,79.7 0 0 1 -11.47,-4.93 35.32,35.32 0 0 1 -8.2,-5.86 22.16,22.16 0 0 1 -4.92,-7.14 22.3,22.3 0 0 1 -1.63,-8.7 19.95,19.95 0 0 1 7.88,-16.29 27.82,27.82 0 0 1 9.15,-4.55 41.48,41.48 0 0 1 11.95,-1.61 39.59,39.59 0 0 1 9.52,1.12 36.33,36.33 0 0 1 9,3.57 c 1.24,0.73 2.41,1.49 3.52,2.27 1.11,0.78 2.08,1.54 2.92,2.26 a 13.47,13.47 0 0 1 2,2.08 3,3 0 0 1 0.74,1.69 2.6,2.6 0 0 1 -0.35,1.31 8.79,8.79 0 0 1 -1.07,1.36 l -8.35,8.9 a 2.68,2.68 0 0 1 -1.85,0.93 2.42,2.42 0 0 1 -1.4,-0.44 16.57,16.57 0 0 1 -1.39,-1.09 l -0.49,-0.44 c -0.73,-0.62 -1.54,-1.25 -2.43,-1.91 a 22.86,22.86 0 0 0 -2.86,-1.77 18.89,18.89 0 0 0 -3.22,-1.31 11.57,11.57 0 0 0 -3.44,-0.52 18.28,18.28 0 0 0 -3.39,0.3 9.39,9.39 0 0 0 -2.78,1 5.28,5.28 0 0 0 -1.91,1.71 4.62,4.62 0 0 0 -0.71,2.6 4.53,4.53 0 0 0 0.76,2.64 7.61,7.61 0 0 0 2.3,2.08 20.72,20.72 0 0 0 3.79,1.8 q 2.26,0.84 5.27,1.83 5.78,1.9 10.67,4 a 36.13,36.13 0 0 1 8.43,5 20.57,20.57 0 0 1 5.54,6.85 21.36,21.36 0 0 1 2,9.66 23.94,23.94 0 0 1 -2.49,10.81 25,25 0 0 1 -6.74,8.33 31.72,31.72 0 0 1 -10.07,5.32 39.89,39.89 0 0 1 -12.45,1.88 35.39,35.39 0 0 1 -12.33,-2.24 47.37,47.37 0 0 1 -11.3,-6 29.16,29.16 0 0 1 -3.69,-3.12 c -1,-1 -1.79,-1.84 -2.37,-2.47 l -0.16,-0.16 a 0.45,0.45 0 0 0 -0.11,-0.14 0.21,0.21 0 0 1 -0.11,-0.08 0.45,0.45 0 0 0 -0.11,-0.14 0.26,0.26 0 0 1 -0.11,-0.08 3.81,3.81 0 0 1 -1.26,-2.19 3.11,3.11 0 0 1 1.26,-2.08 l 9.44,-9 a 3.53,3.53 0 0 1 1.86,-0.82 2,2 0 0 1 1,0.33 8.8,8.8 0 0 1 1.34,0.97 z"
         id="path3"
         style="fill:#ffffff" /><path
         class="a6f204e9-f964-41d6-af4d-7507fbdc5d36"
         d="m 316.88,2.46 a 28,28 0 0 0 -17.83,6.38 28.09,28.09 0 0 0 -45.91,21.7 v 51 a 2,2 0 0 0 2,2 h 16.5 a 2,2 0 0 0 2,-2 v -51 a 7.58,7.58 0 1 1 15.16,0 v 51 a 2,2 0 0 0 2,2 h 16.5 a 2,2 0 0 0 2,-2 v -51 a 7.58,7.58 0 1 1 15.16,0 v 51 a 2,2 0 0 0 2,2 H 343 a 2,2 0 0 0 2,-2 v -51 A 28.08,28.08 0 0 0 316.88,2.46 Z"
         id="path4"
         style="fill:#ffffff" /><path
         class="a6f204e9-f964-41d6-af4d-7507fbdc5d36"
         d="m 171.83,31.18 a 42.32,42.32 0 0 0 -4.05,-10 41.09,41.09 0 0 0 -6.78,-8.91 40.59,40.59 0 0 0 -8.92,-6.79 42.75,42.75 0 0 0 -10,-4.09 41,41 0 0 0 -10.66,-1.39 41.54,41.54 0 0 0 -10.6,1.37 43.21,43.21 0 0 0 -10,4.1 56.3,56.3 0 0 0 -7.39,5.46 c -0.83,0.73 -2.15,2 -2.92,2.73 l -42,42 c -0.78,0.78 -2.11,2 -3,2.69 a 24.92,24.92 0 0 1 -5.51,3.39 20.19,20.19 0 0 1 -7.91,1.34 21,21 0 0 1 -7.9,-1.86 23.08,23.08 0 0 1 -7,-4.88 23.33,23.33 0 0 1 -4.9,-7.06 21,21 0 0 1 -1.82,-7.87 20.08,20.08 0 0 1 1.39,-7.87 20.42,20.42 0 0 1 4.7,-7 19.94,19.94 0 0 1 14.88,-6 21,21 0 0 1 7.87,1.82 28.63,28.63 0 0 1 5.49,3.58 l 1.55,1.31 1.44,1.43 0.07,0.07 a 2,2 0 0 0 2.82,0 L 72.74,16.54 a 2,2 0 0 0 0,-2.83 L 72.63,13.6 c -0.78,-0.77 -2.09,-2 -2.91,-2.73 a 56.3,56.3 0 0 0 -7.4,-5.49 40.46,40.46 0 0 0 -10,-4 42.32,42.32 0 0 0 -21.13,0 41.36,41.36 0 0 0 -18.92,10.9 41.56,41.56 0 0 0 -10.9,18.89 42.57,42.57 0 0 0 -1.37,10.6 40.76,40.76 0 0 0 1.33,10.56 42.25,42.25 0 0 0 4.05,10 41.72,41.72 0 0 0 15.71,15.67 43.44,43.44 0 0 0 10,4.09 41.33,41.33 0 0 0 21.22,0 42.91,42.91 0 0 0 10,-4.09 56.3,56.3 0 0 0 7.39,-5.46 c 0.83,-0.73 2.14,-2 2.92,-2.74 l 42,-42 c 0.78,-0.78 2.11,-2 3,-2.69 a 24.65,24.65 0 0 1 5.53,-3.41 20,20 0 0 1 7.9,-1.35 21.21,21.21 0 0 1 7.95,1.93 24.07,24.07 0 0 1 11.94,11.95 20.76,20.76 0 0 1 1.82,7.86 19.86,19.86 0 0 1 -1.41,7.91 20.55,20.55 0 0 1 -4.7,7.06 20.27,20.27 0 0 1 -7,4.68 19.84,19.84 0 0 1 -7.84,1.36 20.76,20.76 0 0 1 -7.87,-1.82 28.13,28.13 0 0 1 -5.49,-3.58 C 117.6,57 116.91,56.41 116.9,56.4 L 115.46,54.97 108,47.54 a 2,2 0 0 0 -2.83,0 L 93.1,59.65 a 2,2 0 0 0 0,2.83 l 7.42,7.42 c 0.78,0.78 2.1,2 2.92,2.74 a 57.66,57.66 0 0 0 7.39,5.49 41.17,41.17 0 0 0 10,4.05 42.21,42.21 0 0 0 21.14,0 41.22,41.22 0 0 0 18.92,-10.89 42.1,42.1 0 0 0 6.8,-8.88 41.17,41.17 0 0 0 4.09,-10 43.11,43.11 0 0 0 1.38,-10.6 41.2,41.2 0 0 0 -1.33,-10.63 z"
         id="path5"
         style="fill:#ffffff" /></g></g></svg>
