<?xml version="1.0" standalone="no"?>
<!DOCTYPE svg PUBLIC "-//W3C//DTD SVG 20010904//EN"
 "http://www.w3.org/TR/2001/REC-SVG-20010904/DTD/svg10.dtd">
<svg version="1.0" xmlns="http://www.w3.org/2000/svg"
 width="1680.000000pt" height="1680.000000pt" viewBox="0 0 1680.000000 1680.000000"
 preserveAspectRatio="xMidYMid meet">
<metadata>
Created by potrace 1.11, written by Peter Selinger 2001-2013
</metadata>
<g transform="translate(0.000000,1680.000000) scale(0.100000,-0.100000)"
fill="#000000" stroke="none">
<path d="M3786 12443 c-2 -3 -31 -6 -63 -8 -77 -5 -155 -14 -227 -25 -32 -5
-63 -7 -67 -4 -5 3 -9 0 -9 -6 0 -6 -3 -9 -7 -7 -5 3 -51 -4 -103 -14 -52 -11
-105 -21 -117 -23 -11 -2 -61 -14 -110 -26 -48 -12 -95 -23 -103 -25 -8 -2
-16 -4 -17 -5 -3 -3 -8 -4 -48 -14 -16 -4 -43 -13 -60 -19 -16 -6 -35 -12 -41
-13 -20 -3 -165 -56 -239 -87 -38 -16 -76 -29 -82 -30 -7 0 -13 -4 -13 -8 0
-4 -15 -10 -34 -13 -19 -4 -36 -10 -38 -14 -2 -4 -34 -21 -73 -37 -38 -16 -72
-31 -75 -35 -3 -3 -34 -20 -70 -38 -76 -38 -131 -68 -146 -79 -5 -4 -20 -14
-32 -20 -12 -7 -32 -19 -44 -25 -12 -7 -27 -16 -32 -20 -6 -5 -63 -42 -126
-84 -102 -68 -226 -158 -240 -174 -3 -3 -30 -25 -60 -49 -86 -67 -184 -156
-310 -281 -143 -143 -260 -277 -359 -410 -31 -41 -61 -81 -68 -87 -6 -7 -22
-29 -34 -50 -13 -21 -29 -45 -36 -53 -20 -24 -128 -199 -164 -265 -17 -33 -34
-62 -38 -65 -10 -8 -106 -204 -103 -212 1 -5 -3 -8 -8 -8 -6 0 -10 -4 -10 -9
0 -5 -5 -22 -12 -38 -6 -15 -11 -31 -10 -35 1 -5 -3 -8 -8 -8 -6 0 -10 -4 -10
-9 0 -5 -5 -22 -12 -38 -6 -15 -12 -30 -13 -33 -1 -3 -7 -18 -14 -35 -16 -38
-72 -187 -75 -200 -2 -5 -6 -17 -9 -25 -14 -34 -74 -244 -84 -295 -6 -26 -9
-37 -15 -55 -7 -19 -28 -125 -49 -245 -13 -75 -19 -119 -24 -170 -2 -22 -5
-40 -6 -40 -1 0 -3 -13 -4 -30 -2 -16 -7 -70 -12 -120 -8 -91 -8 -607 0 -680
3 -22 8 -69 11 -105 3 -36 8 -74 10 -85 2 -11 7 -40 10 -65 3 -25 9 -58 12
-75 3 -16 7 -39 9 -50 2 -11 8 -45 15 -75 6 -30 14 -66 16 -80 3 -14 14 -61
25 -105 11 -44 22 -84 23 -90 4 -19 68 -220 84 -265 9 -25 17 -47 18 -50 0 -3
5 -16 11 -30 6 -14 25 -61 43 -105 17 -44 47 -113 66 -153 19 -41 34 -78 34
-83 0 -5 5 -9 10 -9 6 0 10 -7 10 -15 0 -8 8 -29 18 -47 10 -18 38 -69 62
-113 24 -44 55 -99 69 -122 14 -23 46 -75 71 -115 24 -40 47 -75 50 -78 4 -3
21 -27 40 -55 19 -27 37 -52 40 -55 3 -3 21 -27 39 -53 113 -166 402 -472 621
-657 36 -30 67 -57 70 -60 3 -3 21 -17 40 -30 19 -13 37 -27 40 -30 19 -23
276 -200 290 -200 5 0 10 -4 10 -10 0 -5 7 -10 15 -10 8 0 15 -3 15 -7 0 -5
10 -13 23 -19 22 -11 94 -51 152 -85 60 -35 210 -109 222 -109 6 0 13 -4 15
-8 3 -8 192 -90 303 -132 33 -12 74 -27 90 -33 17 -7 32 -12 35 -13 3 0 12 -4
20 -7 23 -10 285 -87 312 -92 12 -3 37 -8 53 -12 17 -4 32 -7 35 -8 48 -11 70
-15 93 -20 15 -3 37 -7 50 -9 22 -5 67 -12 122 -21 17 -3 48 -7 70 -10 22 -3
60 -7 85 -10 25 -4 66 -7 91 -9 25 -1 50 -5 55 -8 10 -7 598 -2 659 5 22 2 71
7 108 11 37 4 78 9 90 12 12 3 39 7 60 9 21 2 66 10 100 16 34 6 69 13 77 14
8 1 26 5 40 9 14 4 36 8 50 10 14 2 32 6 40 9 8 3 47 13 85 22 114 27 431 130
450 147 5 4 15 8 23 8 17 0 79 27 273 119 58 28 111 51 117 51 6 0 12 4 14 9
2 5 30 23 63 40 76 39 105 57 179 106 32 22 69 47 82 55 38 25 109 75 114 80
3 3 39 30 80 60 41 29 77 56 80 59 3 4 48 40 100 81 52 41 102 82 110 90 9 8
54 49 101 90 46 41 1054 1044 2240 2230 1879 1879 2227 2222 2372 2333 15 12
33 27 40 32 78 66 400 255 434 255 7 0 13 4 13 8 0 5 19 14 43 21 23 7 51 16
62 21 65 28 286 78 368 83 24 2 47 6 52 9 12 7 386 2 435 -6 99 -16 135 -23
200 -37 48 -11 175 -46 200 -56 8 -3 20 -7 25 -8 87 -20 481 -225 493 -257 2
-4 8 -8 13 -8 9 0 109 -71 137 -98 8 -7 30 -25 50 -40 50 -36 238 -225 287
-287 22 -27 45 -55 50 -61 6 -6 17 -22 25 -34 8 -12 20 -28 25 -34 24 -25 125
-186 156 -246 18 -36 37 -66 41 -68 4 -2 8 -8 8 -13 0 -6 11 -34 24 -62 36
-77 65 -152 87 -221 33 -103 57 -204 73 -306 3 -19 8 -46 11 -60 3 -14 7 -77
9 -140 3 -63 5 -119 6 -125 1 -5 2 -12 1 -15 -1 -3 -4 -45 -6 -95 -2 -49 -6
-103 -8 -120 -3 -16 -8 -50 -12 -75 -22 -145 -84 -345 -152 -487 -24 -51 -44
-95 -43 -99 1 -4 -2 -10 -8 -13 -5 -3 -22 -28 -37 -56 -16 -27 -49 -79 -74
-115 -39 -58 -63 -89 -136 -180 -25 -31 -213 -218 -246 -245 -13 -10 -53 -41
-89 -67 -36 -26 -69 -51 -75 -56 -18 -14 -140 -87 -170 -102 -16 -8 -32 -17
-35 -21 -5 -5 -34 -19 -130 -62 -148 -66 -348 -119 -535 -143 -61 -8 -367 -13
-378 -6 -5 2 -32 6 -60 8 -59 3 -92 9 -192 30 -38 8 -81 17 -93 20 -103 21
-342 119 -457 187 -129 77 -299 194 -355 244 -14 13 -28 23 -32 23 -3 0 -13 6
-20 13 -7 7 -45 41 -83 74 -39 33 -269 259 -510 501 -472 473 -479 480 -563
467 -34 -5 -55 -18 -105 -65 -174 -163 -1221 -1218 -1234 -1244 -19 -37 -19
-99 1 -140 25 -50 986 -1001 1111 -1098 17 -12 40 -33 51 -45 12 -13 25 -23
29 -23 4 0 13 -6 19 -13 14 -18 186 -152 194 -152 4 0 18 -10 32 -23 37 -34
149 -112 159 -112 5 0 11 -4 13 -8 4 -12 95 -72 107 -72 6 0 11 -4 11 -9 0 -5
15 -16 33 -25 17 -9 46 -25 62 -35 17 -10 33 -17 36 -15 4 2 14 -5 24 -16 10
-11 22 -20 28 -20 5 0 53 -21 106 -46 170 -81 281 -128 381 -160 25 -8 54 -19
65 -24 26 -12 108 -34 118 -32 4 1 7 -2 7 -6 0 -4 28 -14 63 -21 34 -8 68 -18
75 -24 6 -5 12 -7 12 -4 0 3 31 -3 69 -13 39 -10 72 -15 75 -12 4 3 6 0 6 -7
0 -7 4 -10 8 -7 4 3 26 1 48 -4 39 -9 92 -19 129 -25 11 -2 38 -6 60 -9 22 -4
54 -9 70 -11 17 -3 50 -7 75 -10 25 -3 68 -8 95 -12 71 -9 719 -9 785 0 30 5
73 10 95 12 36 3 65 7 142 20 13 2 27 6 33 10 5 3 10 1 10 -5 0 -6 5 -8 13 -3
6 4 17 8 22 9 6 1 25 5 43 8 71 13 180 38 237 52 33 9 65 17 70 18 6 1 37 10
70 20 33 10 67 19 75 21 8 2 49 15 90 30 41 14 80 27 85 29 6 1 19 7 30 13 11
6 23 12 27 12 32 6 243 94 250 105 4 6 8 8 8 4 0 -4 33 10 73 31 39 21 74 38
77 37 3 0 23 10 45 23 22 14 63 36 90 51 73 39 328 198 370 232 6 5 28 22 50
38 22 16 45 33 50 37 140 107 313 262 454 407 127 130 132 136 309 351 10 11
26 34 36 50 11 17 24 35 30 42 27 31 36 43 36 48 0 7 39 63 57 82 6 7 26 37
43 65 17 29 52 87 77 128 59 96 216 404 233 455 7 22 16 45 20 50 20 28 148
393 157 450 3 17 9 38 14 47 5 9 9 26 9 37 0 12 5 21 11 21 5 0 8 4 5 9 -3 5
6 60 19 122 14 63 28 128 30 144 2 17 7 41 10 55 3 14 7 39 9 55 9 73 17 132
21 155 26 147 26 846 1 920 -2 8 -8 44 -11 80 -11 103 -14 120 -36 225 -6 28
-13 64 -16 80 -2 17 -16 73 -29 125 -30 112 -33 124 -38 150 -3 11 -8 25 -11
30 -3 5 -8 19 -10 30 -8 42 -60 195 -68 201 -5 3 -8 8 -6 10 1 2 -9 33 -22 69
-13 36 -23 68 -21 73 1 4 -2 7 -8 7 -5 0 -10 7 -10 15 0 8 -4 23 -10 33 -5 9
-30 62 -55 117 -68 148 -99 210 -107 213 -5 2 -8 7 -8 12 0 6 -74 137 -135
238 -6 9 -39 59 -75 111 -36 52 -69 101 -75 109 -5 8 -16 22 -23 31 -7 9 -36
45 -63 81 -149 192 -377 429 -558 580 -30 25 -59 50 -65 55 -6 6 -27 22 -46
35 -19 14 -42 32 -52 40 -43 38 -216 160 -227 160 -5 0 -11 3 -13 8 -3 8 -165
112 -174 112 -3 0 -18 8 -32 19 -39 27 -362 188 -394 196 -16 4 -28 11 -28 16
0 5 -6 9 -13 9 -7 0 -49 15 -94 34 -45 19 -108 42 -140 52 -32 9 -62 20 -68
24 -5 4 -23 11 -40 15 -32 9 -33 9 -55 17 -90 32 -384 103 -510 122 -19 3 -46
8 -60 10 -25 4 -101 15 -153 22 -145 18 -677 25 -807 10 -30 -4 -73 -8 -95
-10 -22 -2 -58 -6 -80 -10 -22 -3 -58 -8 -80 -11 -41 -4 -191 -30 -235 -41
-14 -3 -43 -10 -65 -15 -22 -5 -44 -11 -50 -13 -5 -1 -28 -7 -50 -11 -49 -11
-47 -10 -65 -18 -12 -5 -89 -27 -110 -32 -3 0 -30 -9 -60 -20 -30 -11 -57 -20
-60 -20 -10 -2 -86 -27 -105 -35 -11 -4 -36 -15 -55 -23 -19 -9 -47 -19 -63
-22 -15 -4 -30 -11 -33 -16 -3 -5 -10 -7 -15 -4 -5 4 -9 1 -9 -4 0 -6 -3 -10
-7 -9 -5 1 -20 -4 -36 -10 -51 -21 -342 -166 -347 -173 -3 -3 -23 -16 -45 -28
-46 -25 -78 -44 -85 -51 -3 -3 -30 -21 -60 -40 -30 -19 -64 -43 -74 -52 -11
-10 -28 -20 -38 -24 -10 -3 -18 -10 -18 -15 0 -5 -6 -9 -14 -9 -8 0 -16 -7
-20 -15 -3 -8 -12 -15 -21 -15 -8 0 -15 -4 -15 -8 0 -4 -13 -16 -30 -25 -16
-10 -35 -23 -42 -30 -7 -7 -31 -25 -53 -42 -46 -34 -47 -35 -180 -146 -55 -46
-120 -102 -144 -124 -25 -22 -1009 -1003 -2187 -2180 -1178 -1177 -2168 -2164
-2201 -2193 -77 -71 -88 -81 -158 -137 -33 -27 -62 -51 -65 -54 -3 -3 -12 -10
-21 -16 -19 -12 -199 -132 -214 -142 -10 -7 -53 -32 -100 -57 -11 -6 -28 -18
-39 -26 -10 -8 -20 -14 -22 -13 -2 2 -33 -11 -69 -27 -36 -17 -72 -30 -80 -30
-7 0 -17 -5 -20 -10 -4 -6 -12 -10 -18 -9 -7 1 -19 -1 -27 -4 -22 -9 -138 -39
-190 -48 -25 -5 -56 -11 -70 -14 -106 -20 -436 -27 -539 -12 -142 20 -166 24
-166 27 0 1 -9 3 -20 4 -11 2 -49 11 -85 20 -36 10 -73 19 -82 21 -9 2 -25 8
-35 13 -10 6 -22 11 -28 12 -5 1 -20 6 -33 11 -13 5 -29 9 -35 9 -7 0 -24 8
-37 17 -14 10 -26 17 -27 15 -2 -1 -5 -1 -8 -1 -3 1 -8 2 -12 3 -5 1 -48 22
-98 47 -162 83 -245 130 -245 142 0 4 -6 7 -13 7 -7 0 -22 8 -33 18 -11 9 -42
33 -69 52 -28 19 -55 39 -62 45 -6 5 -31 26 -55 45 -72 58 -250 240 -318 325
-93 117 -201 286 -265 412 -30 61 -55 114 -55 116 0 3 -6 20 -14 38 -8 19 -14
36 -13 39 0 3 -6 16 -13 30 -8 14 -15 30 -16 35 -5 18 -44 159 -56 197 -6 21
-12 48 -13 60 -1 13 -5 39 -8 58 -23 125 -27 170 -27 330 0 151 3 190 24 315
31 180 83 346 160 508 66 137 217 377 238 377 4 0 8 5 8 10 0 31 255 280 393
383 63 48 117 87 120 87 3 0 34 17 68 39 86 51 240 122 334 151 22 7 45 15 50
19 6 3 15 6 20 7 6 1 39 10 75 19 36 9 76 19 90 21 14 3 48 9 75 14 108 20
135 22 287 24 229 4 412 -23 631 -90 45 -14 91 -29 102 -34 11 -5 45 -19 75
-32 30 -12 77 -35 103 -50 26 -15 49 -28 51 -28 8 0 143 -84 211 -131 117 -81
160 -111 165 -118 3 -4 41 -36 85 -71 44 -35 130 -113 192 -173 61 -61 126
-116 145 -124 39 -17 92 -15 131 4 36 18 1274 1259 1294 1297 20 39 20 95 1
137 -38 79 -426 428 -708 636 -36 26 -67 50 -70 53 -14 14 -280 190 -288 190
-6 0 -12 3 -14 8 -7 16 -381 197 -448 217 -3 1 -21 8 -40 17 -36 15 -270 97
-299 103 -9 3 -50 14 -91 25 -41 11 -83 23 -93 25 -10 2 -27 7 -37 10 -10 3
-29 8 -42 10 -13 3 -48 10 -78 17 -30 6 -62 12 -70 14 -8 1 -26 5 -40 8 -14 3
-41 7 -60 10 -19 2 -46 7 -60 9 -27 6 -119 17 -185 24 -22 2 -65 6 -95 9 -69
7 -607 13 -614 7z"/>
</g>
</svg>
